<?xml version="1.0" encoding="UTF-8"?> <svg xmlns="http://www.w3.org/2000/svg" id="Lag_1" version="1.1" viewBox="0 0 595.28 216.89" preserveAspectRatio="xMinYMin"><defs><style> .st0 { fill: #fff; } </style></defs><polygon class="st0" points="285.69 22.51 271.23 53 257.36 39.7 244.85 58.07 237.03 59.64 225.11 77.03 214.75 78.59 193.65 93.25 191.4 94.42 217.52 82.88 239.57 76.83 258.92 60.61 257.55 42.44 271.43 55.54 285.3 41.46 286.28 25.63 307.19 51.82 318.91 51.62 330.64 79.96 343.93 80.16 375.39 94.42 350.57 68.63 339.24 67.65 319.3 48.89 308.36 48.89 285.69 22.51"></polygon><path class="st0" d="M276.78,139.99c-.43,1.1-.98,2.16-1.65,3.16,4.28,4.27,11.04,4.9,16.02,1.17,4.99-3.73,6.49-10.54,3.87-16.05-.31-.65-.67-1.3-1.1-1.91-.27-.38-.56-.74-.86-1.08-1.51-1.71-3.38-2.92-5.41-3.59.01,0,.02,0,.03,0-2.71-.9-4.96-3.09-5.91-6.08-.24-.75-.35-1.51-.4-2.26-1,.65-2.06,1.17-3.16,1.57.1.58.23,1.17.42,1.75.56,1.79,1.48,3.36,2.64,4.67,1.47,1.67,3.34,2.89,5.4,3.57.28.09.28.09,0,0,1.78.59,3.39,1.77,4.57,3.45.13.18.23.36.35.54,2.54,4.17,1.55,9.73-2.38,12.66-3.92,2.93-9.36,2.19-12.43-1.58M250.93,128.28c-2.63,5.51-1.12,12.32,3.87,16.05,4.98,3.73,11.74,3.1,16.02-1.18.51-.51.99-1.06,1.42-1.67.27-.38.51-.77.73-1.17,1.12-2,1.65-4.21,1.65-6.41,0,.01,0,.02,0,.03,0-2.93,1.32-5.81,3.79-7.66.62-.46,1.29-.81,1.97-1.09-.91-.78-1.72-1.65-2.42-2.61-.51.28-1.01.59-1.49.95-1.48,1.11-2.64,2.49-3.5,4.03-1.08,1.96-1.64,4.17-1.63,6.4,0,.3,0,.3,0,0,0,1.92-.59,3.86-1.77,5.54-.13.18-.26.34-.4.51-3.07,3.78-8.51,4.52-12.43,1.59-3.92-2.93-4.92-8.48-2.38-12.65-1.15-.08-2.3-.29-3.43-.64M246.71,109.79c1.5-4.75,6.32-7.43,10.95-6.24-.28-1.15-.44-2.34-.47-3.56-5.9-.87-11.73,2.71-13.63,8.74-1.9,6.04.77,12.46,6.04,15.32.63.34,1.28.64,1.98.88.43.15.87.26,1.31.36,2.2.48,4.4.32,6.43-.37-.01,0-.02,0-.03.01,2.7-.91,5.77-.5,8.25,1.35.62.46,1.14,1.01,1.62,1.59.44-1.13,1-2.19,1.66-3.18-.41-.41-.85-.8-1.33-1.16-1.48-1.11-3.12-1.82-4.8-2.18-2.14-.46-4.35-.32-6.41.38-.28.09-.28.09,0,0-1.78.6-3.75.61-5.66-.02-.2-.07-.4-.15-.59-.23-4.43-1.84-6.8-6.93-5.3-11.68M282.13,98.94c.98-.63,2.03-1.15,3.14-1.56-1.02-6.04-6.13-10.64-12.29-10.64s-11.27,4.6-12.29,10.64c-.12.72-.2,1.46-.2,2.21,0,.47.03.93.08,1.39.24,2.3,1.07,4.41,2.33,6.18,0,0-.01-.02-.02-.02,1.67,2.37,2.25,5.5,1.31,8.49-.24.75-.58,1.43-.97,2.08,1.18.08,2.33.3,3.45.64.25-.53.48-1.08.66-1.66.57-1.79.72-3.61.53-5.37-.24-2.24-1.06-4.36-2.33-6.16-.17-.24-.17-.24,0,0-1.1-1.56-1.73-3.49-1.73-5.55,0-.22.02-.43.03-.65.33-4.91,4.3-8.8,9.15-8.8s8.82,3.89,9.15,8.8M302.38,108.74c-1.9-6.03-7.73-9.61-13.63-8.75-.7.1-1.41.26-2.11.49-.43.14-.85.32-1.26.5-2.05.95-3.74,2.41-4.99,4.19,0,0,.01-.02.02-.03-1.67,2.37-4.38,3.91-7.44,3.91-.76,0-1.5-.12-2.22-.31.29,1.18.44,2.37.47,3.57.57.08,1.15.13,1.74.13,1.83,0,3.56-.41,5.13-1.14,2-.93,3.7-2.38,4.97-4.19.17-.24.17-.24,0,0,1.1-1.56,2.69-2.77,4.6-3.41.2-.07.41-.12.61-.17,4.63-1.2,9.46,1.49,10.96,6.24,1.5,4.75-.87,9.84-5.3,11.68.88.77,1.69,1.63,2.41,2.6,5.27-2.87,7.94-9.29,6.04-15.32"></path><path class="st0" d="M553.91,127.63l-18.35-24.15h-11v43.31h11.8v-24.09l18.35,24.09h10.93v-43.31h-11.74v24.15ZM484.44,146.78h36.01v-9.89h-23.17v-6.86h20.45v-9.88h-20.45v-6.79h22.55v-9.89h-35.4v43.31ZM453.71,146.78h13.34l16.74-43.31h-13.16l-9.89,29.96-9.88-29.96h-13.71l16.56,43.31ZM413.43,113.36h7.35c1.94,0,3.43.5,4.48,1.51,1.05,1.01,1.57,2.46,1.57,4.36s-.53,3.42-1.57,4.45c-1.05,1.03-2.54,1.54-4.48,1.54h-7.35v-11.86ZM440.55,146.78l-8.77-14.15c2.35-1.36,4.15-3.2,5.4-5.53,1.26-2.33,1.89-5.07,1.89-8.25,0-4.9-1.6-8.69-4.79-11.37-3.19-2.68-7.69-4.02-13.5-4.02h-20.2v43.31h12.85v-11.68h6.79l5.75,11.68h14.58ZM360.45,146.78h36.01v-9.89h-23.16v-6.86h20.45v-9.88h-20.45v-6.79h22.55v-9.89h-35.4v43.31ZM343.49,127.63l-18.35-24.15h-11v43.31h11.8v-24.09l18.35,24.09h10.93v-43.31h-11.74v24.15Z"></path><path class="st0" d="M200.73,146.75h31.01v-10.75h-18.16v-32.56h-12.85v43.31ZM160.6,146.75h36.02v-9.89h-23.17v-6.86h20.45v-9.88h-20.45v-6.79h22.55v-9.89h-35.4v43.31ZM143.03,120.99l15.75-17.54h-14.83l-14.52,17.36v-17.36h-12.85v43.31h12.85v-10.63l4.82-5.31,10.13,15.94h15.38l-16.74-25.76ZM103.25,103.44l-9.2,17.67-9.45-17.67h-12.85l15.88,29.84v13.47h12.85v-13.71l15.57-29.59h-12.79ZM67,119.2l7.41-8.83c-2.18-2.35-4.9-4.22-8.15-5.62-3.25-1.4-6.51-2.1-9.76-2.1-4.41,0-8.38.97-11.92,2.9-3.54,1.94-6.32,4.6-8.34,8-2.02,3.4-3.03,7.2-3.03,11.4s.99,8.15,2.97,11.61c1.98,3.46,4.7,6.17,8.18,8.12,3.48,1.96,7.38,2.93,11.71,2.93,3.25,0,6.54-.76,9.85-2.29,3.31-1.52,6.15-3.56,8.49-6.11l-7.41-7.91c-1.48,1.57-3.16,2.8-5.03,3.71-1.87.91-3.64,1.36-5.28,1.36-1.94,0-3.69-.5-5.25-1.51-1.57-1.01-2.8-2.39-3.71-4.14-.91-1.75-1.36-3.72-1.36-5.9s.45-4.15,1.36-5.9c.91-1.75,2.14-3.12,3.71-4.11,1.56-.99,3.31-1.48,5.25-1.48,1.77,0,3.59.53,5.47,1.57,1.87,1.05,3.49,2.48,4.85,4.29"></path><path class="st0" d="M477.4,174.45l-10.19-13.64h-3.59v19.77h3.7v-13.61l10.17,13.61h3.59v-19.77h-3.67v13.64ZM443.65,180.58h14.83v-3.3h-11.04v-4.97h9.6v-3.3h-9.6v-4.88h10.7v-3.31h-14.49v19.77ZM434.72,176.2c-.68.4-1.39.7-2.13.92-.74.22-1.45.32-2.13.32-1.26,0-2.41-.3-3.45-.9-1.04-.6-1.86-1.42-2.47-2.46-.61-1.03-.92-2.17-.92-3.42s.3-2.35.9-3.39c.6-1.04,1.43-1.85,2.47-2.44,1.05-.59,2.19-.89,3.43-.89,1,0,1.99.2,2.98.59.99.4,1.86.95,2.61,1.67l2.15-2.8c-1-.88-2.18-1.58-3.56-2.09-1.38-.51-2.77-.76-4.18-.76-1.98,0-3.78.45-5.41,1.34-1.63.89-2.91,2.11-3.85,3.64-.94,1.54-1.41,3.24-1.41,5.13s.46,3.6,1.38,5.15c.92,1.55,2.18,2.78,3.77,3.68,1.59.9,3.35,1.36,5.29,1.36,1.35,0,2.74-.24,4.15-.72,1.41-.48,2.64-1.11,3.67-1.88v-7.51h-3.31v5.45ZM411.36,174.45l-10.19-13.64h-3.59v19.77h3.7v-13.61l10.17,13.61h3.59v-19.77h-3.67v13.64ZM387.68,180.58h3.78v-19.77h-3.78v19.77ZM377.89,174.45l-10.2-13.64h-3.59v19.77h3.7v-13.61l10.17,13.61h3.59v-19.77h-3.67v13.64ZM344.14,180.58h14.83v-3.3h-11.04v-4.97h9.6v-3.3h-9.6v-4.88h10.7v-3.31h-14.49v19.77ZM326.37,164.11h4.46c1.43,0,2.52.3,3.27.9.75.6,1.13,1.51,1.13,2.71s-.38,2.15-1.13,2.77c-.75.62-1.85.93-3.27.93h-4.46v-7.31ZM339.27,180.58l-4.35-6.55c1.28-.55,2.25-1.36,2.92-2.46.67-1.09,1-2.41,1-3.95,0-2.16-.7-3.84-2.09-5.03-1.39-1.19-3.37-1.78-5.93-1.78h-8.25v19.77h3.78v-5.82h4.46c.32,0,.55-.01.7-.03l3.42,5.85h4.32ZM307.38,163.94c1.19,0,2.29.3,3.3.89,1.02.59,1.82,1.4,2.42,2.43.59,1.03.89,2.16.89,3.4s-.3,2.38-.89,3.42c-.59,1.03-1.4,1.85-2.42,2.46-1.02.6-2.12.9-3.3.9s-2.32-.3-3.35-.9c-1.03-.6-1.85-1.42-2.46-2.46-.61-1.03-.92-2.17-.92-3.42s.3-2.38.9-3.4c.6-1.03,1.42-1.84,2.46-2.43,1.03-.59,2.15-.89,3.36-.89M307.32,160.55c-1.96,0-3.74.44-5.35,1.33-1.61.89-2.88,2.1-3.8,3.64-.92,1.54-1.38,3.26-1.38,5.14s.46,3.6,1.38,5.15c.92,1.55,2.19,2.78,3.8,3.68,1.61.9,3.39,1.36,5.35,1.36s3.74-.45,5.35-1.36c1.61-.9,2.88-2.13,3.8-3.68.92-1.55,1.38-3.27,1.38-5.15s-.46-3.6-1.38-5.14c-.92-1.54-2.19-2.76-3.8-3.64-1.61-.89-3.39-1.33-5.35-1.33M280.47,180.58h3.78v-7.82h8.95v-3.3h-8.95v-5.34h9.83l.03-3.31h-13.64v19.77ZM260.51,180.58h14.83v-3.3h-11.04v-4.97h9.6v-3.3h-9.6v-4.88h10.7v-3.31h-14.49v19.77ZM253.82,165.89l1.52-3.3c-.98-.64-2.09-1.15-3.35-1.53-1.25-.38-2.52-.56-3.8-.56-1.47,0-2.76.24-3.88.71s-1.99,1.13-2.6,1.99c-.61.86-.92,1.86-.92,3.01,0,1.24.3,2.25.9,3.01.6.76,1.33,1.33,2.17,1.71.85.38,1.94.76,3.27,1.16.98.28,1.75.54,2.32.76.56.23,1.03.52,1.4.89.37.37.55.83.55,1.4,0,.7-.3,1.25-.91,1.65-.6.4-1.43.61-2.49.61s-2.23-.26-3.47-.79c-1.24-.53-2.36-1.25-3.36-2.17l-1.58,3.22c1.09.96,2.37,1.73,3.84,2.3,1.47.58,2.97.86,4.52.86s2.77-.23,3.91-.71c1.14-.47,2.03-1.15,2.68-2.05.65-.89.97-1.94.97-3.15s-.3-2.28-.9-3.05c-.6-.77-1.33-1.36-2.19-1.75-.86-.4-1.95-.79-3.29-1.19-.96-.28-1.72-.54-2.27-.78-.56-.24-1.02-.54-1.38-.9-.37-.37-.55-.82-.55-1.37,0-.6.26-1.07.79-1.41s1.24-.51,2.15-.51c.81,0,1.74.17,2.81.51,1.06.34,2.1.82,3.12,1.44M226.31,163.94c1.19,0,2.29.3,3.31.89,1.02.59,1.82,1.4,2.41,2.43.59,1.03.89,2.16.89,3.4s-.3,2.38-.89,3.42c-.59,1.03-1.4,1.85-2.41,2.46-1.02.6-2.12.9-3.31.9s-2.32-.3-3.35-.9c-1.03-.6-1.85-1.42-2.46-2.46-.61-1.03-.92-2.17-.92-3.42s.3-2.38.9-3.4c.6-1.03,1.42-1.84,2.46-2.43,1.03-.59,2.15-.89,3.36-.89M226.26,160.55c-1.96,0-3.74.44-5.35,1.33-1.61.89-2.88,2.1-3.8,3.64-.92,1.54-1.38,3.26-1.38,5.14s.46,3.6,1.38,5.15c.92,1.55,2.19,2.78,3.8,3.68,1.61.9,3.39,1.36,5.35,1.36s3.74-.45,5.35-1.36c1.61-.9,2.88-2.13,3.8-3.68.92-1.55,1.38-3.27,1.38-5.15s-.46-3.6-1.38-5.14c-.92-1.54-2.19-2.76-3.8-3.64s-3.39-1.33-5.35-1.33M199.49,164.11h4.46c1.43,0,2.52.3,3.27.9.75.6,1.13,1.51,1.13,2.71s-.38,2.15-1.13,2.77c-.75.62-1.84.93-3.27.93h-4.46v-7.31ZM212.39,180.58l-4.35-6.55c1.28-.55,2.25-1.36,2.92-2.46.67-1.09,1-2.41,1-3.95,0-2.16-.7-3.84-2.09-5.03-1.39-1.19-3.37-1.78-5.93-1.78h-8.25v19.77h3.78v-5.82h4.46c.32,0,.56-.01.71-.03l3.42,5.85h4.32ZM175.73,180.58h14.82v-3.3h-11.04v-4.97h9.6v-3.3h-9.6v-4.88h10.7v-3.31h-14.49v19.77ZM159.45,180.58h12.31v-3.42h-8.53v-16.35h-3.78v19.77ZM152.92,166.51l2.2-2.77c-.96-1-2.12-1.78-3.47-2.34-1.36-.56-2.74-.85-4.15-.85-1.94,0-3.7.44-5.29,1.33s-2.85,2.1-3.77,3.64c-.92,1.54-1.38,3.26-1.38,5.14s.45,3.6,1.35,5.15c.91,1.55,2.15,2.78,3.73,3.68,1.58.9,3.32,1.36,5.22,1.36,1.41,0,2.8-.31,4.18-.92,1.37-.61,2.58-1.44,3.62-2.5l-2.23-2.49c-.73.73-1.58,1.31-2.53,1.72-.95.42-1.9.62-2.84.62-1.22,0-2.34-.3-3.36-.89-1.02-.59-1.82-1.4-2.4-2.43-.58-1.03-.88-2.15-.88-3.37s.29-2.35.88-3.37c.58-1.03,1.38-1.83,2.4-2.42,1.02-.58,2.14-.88,3.36-.88.98,0,1.94.23,2.9.68.95.45,1.77,1.08,2.47,1.89M131.99,165.89l1.52-3.3c-.98-.64-2.09-1.15-3.35-1.53-1.25-.38-2.52-.56-3.8-.56-1.47,0-2.76.24-3.88.71s-1.99,1.13-2.6,1.99c-.61.86-.92,1.86-.92,3.01,0,1.24.3,2.25.9,3.01.6.76,1.33,1.33,2.17,1.71.85.38,1.94.76,3.27,1.16.98.28,1.75.54,2.32.76.56.23,1.03.52,1.4.89.37.37.55.83.55,1.4,0,.7-.3,1.25-.9,1.65-.6.4-1.43.61-2.49.61s-2.23-.26-3.47-.79c-1.24-.53-2.36-1.25-3.36-2.17l-1.58,3.22c1.09.96,2.37,1.73,3.84,2.3,1.47.58,2.97.86,4.52.86s2.77-.23,3.91-.71c1.14-.47,2.03-1.15,2.68-2.05.65-.89.97-1.94.97-3.15s-.3-2.28-.9-3.05c-.6-.77-1.33-1.36-2.19-1.75-.86-.4-1.95-.79-3.29-1.19-.96-.28-1.72-.54-2.27-.78-.56-.24-1.02-.54-1.38-.9-.37-.37-.55-.82-.55-1.37,0-.6.26-1.07.79-1.41s1.24-.51,2.15-.51c.81,0,1.75.17,2.81.51s2.1.82,3.12,1.44"></path></svg> 